<?xml version="1.0" standalone="no"?>
<!DOCTYPE svg PUBLIC "-//W3C//DTD SVG 20010904//EN"
 "http://www.w3.org/TR/2001/REC-SVG-20010904/DTD/svg10.dtd">
<svg version="1.0" xmlns="http://www.w3.org/2000/svg"
 width="700.000000pt" height="700.000000pt" viewBox="0 0 700.000000 700.000000"
 preserveAspectRatio="xMidYMid meet">
<metadata>
Created by potrace 1.14, written by Peter Selinger 2001-2017
</metadata>
<g transform="translate(0.000000,700.000000) scale(0.100000,-0.100000)"
fill="#000000" stroke="none">
<path d="M4345 5242 c-30 -6 -83 -49 -100 -83 -22 -41 -25 -108 -8 -149 23
-57 50 -71 193 -95 14 -2 66 -11 115 -19 50 -9 110 -18 135 -21 25 -3 56 -7
70 -10 42 -8 82 -13 150 -20 36 -4 72 -8 80 -10 8 -2 44 -6 80 -9 36 -4 76 -8
90 -10 29 -5 186 -18 374 -31 38 -2 70 -6 72 -8 2 -2 -56 -32 -129 -67 -676
-327 -1636 -807 -1762 -880 -16 -10 -93 -50 -170 -90 -77 -40 -201 -105 -275
-145 -74 -40 -184 -98 -245 -130 -112 -59 -211 -112 -320 -170 -33 -18 -109
-58 -170 -90 -60 -32 -124 -66 -141 -76 -18 -10 -76 -41 -130 -70 -55 -29
-200 -109 -324 -178 -124 -68 -235 -130 -247 -135 -13 -6 -23 -14 -23 -18 0
-5 -4 -8 -9 -8 -6 0 -78 -40 -162 -90 -83 -50 -153 -90 -156 -90 -2 0 -9 -5
-16 -10 -7 -6 -79 -53 -162 -104 -82 -51 -176 -110 -209 -132 -32 -21 -66 -44
-75 -49 -120 -74 -487 -342 -506 -368 -21 -30 -19 -62 8 -93 27 -31 60 -34
114 -9 169 78 611 302 803 407 41 22 104 57 140 76 36 19 70 38 75 42 6 4 42
24 80 45 39 21 120 66 180 100 61 34 130 74 155 87 25 14 106 60 180 103 74
43 155 89 180 103 25 14 126 71 225 127 182 103 366 206 552 308 107 59 249
134 543 286 187 97 1324 665 1400 699 25 11 125 59 224 106 98 47 179 86 181
86 1 0 56 25 121 56 223 106 326 154 329 154 2 0 55 25 120 55 64 30 118 55
121 55 2 0 -3 -17 -12 -37 -69 -160 -192 -524 -210 -623 -3 -14 -11 -50 -19
-80 -24 -96 -55 -282 -61 -370 -5 -75 -3 -89 16 -118 23 -38 89 -71 138 -72
36 0 95 22 116 42 28 29 45 87 97 345 16 80 70 279 115 423 69 221 157 434
271 660 69 137 103 215 103 238 0 69 -61 145 -127 157 -31 6 -2147 12 -2178 7z"/>
</g>
</svg>
