<?xml version="1.0" standalone="no"?>
<!DOCTYPE svg PUBLIC "-//W3C//DTD SVG 20010904//EN"
 "http://www.w3.org/TR/2001/REC-SVG-20010904/DTD/svg10.dtd">
<svg version="1.0" xmlns="http://www.w3.org/2000/svg"
 width="700.000000pt" height="700.000000pt" viewBox="0 0 700.000000 700.000000"
 preserveAspectRatio="xMidYMid meet">
<metadata>
Created by potrace 1.14, written by Peter Selinger 2001-2017
</metadata>
<g transform="translate(0.000000,700.000000) scale(0.100000,-0.100000)"
fill="#000000" stroke="none">
<path d="M4695 5145 c-221 -49 -428 -173 -660 -395 -124 -119 -256 -272 -332
-385 -112 -167 -182 -387 -298 -935 -23 -107 -87 -261 -140 -335 -73 -103
-119 -110 -142 -21 -19 77 -9 177 38 372 11 45 21 90 23 100 2 11 9 37 14 59
6 22 14 60 17 85 4 24 9 48 12 53 2 4 4 56 4 115 0 171 -41 286 -118 334 -113
69 -329 -25 -410 -179 -28 -52 -47 -108 -59 -168 -3 -18 -7 -41 -19 -135 -3
-19 -7 -71 -10 -115 -3 -44 -8 -98 -10 -120 -11 -116 -17 -161 -20 -175 -3 -8
-7 -28 -10 -45 -18 -106 -35 -156 -60 -181 -21 -21 -26 -22 -49 -10 -15 7 -81
67 -149 133 -175 171 -247 201 -339 145 -62 -38 -114 -127 -163 -279 -19 -56
-37 -118 -40 -137 -12 -64 -11 -64 -256 -35 -131 15 -138 11 -211 -110 -94
-158 -125 -185 -242 -215 -51 -14 -77 -18 -208 -32 -65 -7 -124 -22 -150 -37
-10 -7 -46 -65 -80 -129 -62 -120 -89 -158 -112 -158 -8 0 -45 12 -82 26 -186
71 -282 81 -371 39 -29 -13 -53 -29 -53 -35 0 -5 1 -10 3 -10 2 0 64 -18 138
-41 360 -110 364 -111 422 -83 39 19 64 53 133 183 70 131 76 134 299 146 197
10 241 38 325 205 26 52 57 103 68 113 22 20 64 24 137 13 76 -12 246 -15 282
-5 41 12 51 31 59 115 8 86 47 224 81 285 15 28 39 54 59 65 29 16 39 17 80 6
74 -20 111 -56 154 -147 41 -89 68 -116 160 -159 89 -42 141 -31 176 37 25 47
72 192 84 256 5 31 12 65 14 77 2 11 7 47 10 79 4 32 9 72 11 89 2 17 7 58 9
91 22 254 56 370 136 461 45 52 81 74 121 74 54 0 92 -41 113 -122 33 -122 27
-209 -31 -513 -57 -297 -51 -433 24 -521 84 -99 216 -64 305 81 60 97 140 365
183 615 3 19 10 54 16 78 5 23 12 59 15 79 9 59 63 264 86 327 12 33 50 101
84 153 210 313 514 591 764 698 246 105 362 81 338 -71 -16 -102 -102 -265
-211 -399 -42 -51 -269 -308 -297 -335 -39 -38 -179 -202 -268 -312 -142 -176
-202 -273 -227 -368 -12 -46 -12 -244 0 -300 7 -36 18 -185 18 -255 0 -92 -11
-168 -48 -321 -32 -133 -56 -277 -49 -299 1 -5 5 -28 8 -50 9 -74 20 -89 88
-122 106 -52 194 -60 299 -30 202 60 333 311 295 567 -58 384 -64 532 -27 650
62 202 252 477 490 708 459 447 1023 804 1271 806 8 0 30 -5 48 -11 106 -38
36 -231 -155 -427 -71 -72 -171 -150 -378 -293 -287 -199 -414 -318 -613 -572
-222 -284 -352 -550 -367 -751 -3 -47 15 -78 59 -99 57 -28 119 -26 194 4 34
14 69 25 78 25 30 0 6 -67 -91 -260 -110 -216 -125 -255 -129 -335 -10 -153
74 -245 190 -210 76 23 152 91 229 206 25 37 45 71 45 77 0 6 4 12 9 14 17 6
149 292 251 542 122 300 139 335 236 478 105 155 187 254 319 383 170 167 334
276 491 328 215 72 280 -16 184 -247 -54 -130 -159 -274 -310 -426 -74 -75
-153 -151 -175 -170 -22 -19 -60 -52 -85 -74 -296 -255 -483 -430 -585 -550
-116 -135 -197 -280 -229 -407 -16 -66 -22 -199 -9 -199 21 0 104 69 131 109
17 25 50 100 72 165 23 66 60 151 82 189 96 165 290 368 557 582 592 476 871
933 679 1112 -52 49 -165 69 -278 50 -191 -33 -442 -187 -640 -394 -189 -195
-325 -404 -458 -703 -177 -395 -259 -567 -334 -694 -159 -269 -282 -360 -256
-188 14 92 46 179 118 318 77 147 111 245 112 319 2 68 -8 92 -44 111 -39 20
-91 15 -195 -21 -89 -30 -113 -28 -113 8 0 35 52 182 95 267 52 105 230 372
266 400 3 3 29 32 57 65 81 97 214 229 298 295 10 9 81 58 157 110 458 314
612 474 660 685 25 113 -2 258 -56 298 -188 141 -873 -244 -1425 -801 -301
-305 -493 -590 -569 -846 -44 -149 -49 -271 -18 -446 9 -52 19 -108 21 -125 3
-16 7 -41 11 -55 3 -14 7 -69 9 -123 3 -124 -17 -178 -87 -241 -77 -70 -254
-125 -307 -97 -68 36 -71 144 -12 381 69 281 79 420 39 590 -42 181 -32 263
46 400 54 96 237 331 335 431 14 14 42 46 63 70 21 24 90 98 152 164 143 152
178 195 230 275 141 221 204 426 166 543 -29 86 -133 116 -286 82z"/>
</g>
</svg>
