<?xml version="1.0" encoding="UTF-8"?>
<svg width="1200pt" height="1200pt" version="1.1" viewBox="0 0 1200 1200" xmlns="http://www.w3.org/2000/svg">
 <path d="m1112.3 301.71c-120.49-0.25391-241-0.50391-361.5-0.76953-29.93-0.058593-38.461 48.168-7.2852 53.797 72.602 13.105 145.43 21.887 218.71 25.957-137.46 65.555-273.66 133.59-408 205.48-163.95 87.742-339.7 175.11-488.04 287.88-13.754 10.465-2.3984 30.828 13.656 23.363 170.33-79.246 331.5-183.39 498.3-270.32 153.88-80.195 309.91-156.42 467.88-228.24-27.48 62.473-46.906 128.38-53.676 196.55-3.0352 30.562 47.879 37.523 53.82 7.2852 18.191-92.531 42.742-176.64 90.168-259.08 10.559-18.289-2.8203-41.844-24.035-41.895z"/>
</svg>
