<?xml version="1.0" encoding="UTF-8"?>
<svg width="1200pt" height="1200pt" version="1.1" viewBox="0 0 1200 1200" xmlns="http://www.w3.org/2000/svg">
 <path d="m534.77 643.7c3.6328-32.16 17.895-65.098 19.449-100.11 2.3359-53.684-23.082-88.18-73.914-51.609-38.125 27.492-27.23 90.773-37.863 145.75-8.3008 42.793-10.633 50.574-40.199 19.711-28.008-29.305-62.762-68.207-91.289 17.117-12.707 37.605 0.51953 35.531-39.422 31.121-37.605-4.1484-31.641-8.5586-52.129 25.676-11.672 19.711-16.598 26.973-56.02 32.68-55.758 4.4102-42.273 8.3008-61.727 42.016-12.188 21.008-10.633 16.859-31.383 9.0781-24.379-9.0781-50.055-16.859-70.281 1.5547l71.84 22.043c16.598 4.668 30.602 6.2227 42.273-17.895 19.711-35.789 11.93-36.051 54.203-38.125 31.898-1.5547 44.609-0.51953 60.945-37.863 13.227-30.086 16.859-18.672 52.648-17.117 52.648 2.5938 32.418-6.4844 44.609-47.461 7.7812-26.195 17.637-49.277 47.719-26.973 14.781 10.895 7.5195 28.27 30.602 41.234 32.938 18.414 37.605 5.4453 47.719-26.453 16.859-53.684 8.3008-117.48 29.566-148.61 28.27-41.496 52.129-17.117 50.055 30.602-1.8164 42.273-16.859 80.656-16.078 112.82 0.77734 37.086 29.305 60.168 55.758 31.121 36.828-40.457 40.457-171.69 66.395-214.48 26.195-43.051 84.547-110.22 143.68-133.3 53.684-21.008 66.652-2.8516 40.719 47.461-21.266 41.234-68.727 81.176-122.41 148.09-47.719 59.648-42.273 64.316-35.012 139.01 6.2227 65.613-28.008 100.62-11.672 146.53 59.648 43.051 122.93-10.113 114.11-81.953-10.895-89.215-24.637-102.96 33.457-184.91 32.16-45.387 123.19-127.34 202.81-169.09 91.809-48.238 96.996-2.0742 43.57 54.203-30.344 32.16-78.062 53.684-121.38 93.625-32.68 30.344-95.957 106.07-109.45 163.91-5.707 24.898-7.0039 38.645 20.746 41.234 21.785 2.0742 51.871-33.195 25.418 19.969-10.633 21.527-23.859 42.016-29.047 61.727-7.2617 27.75 7.0039 62.242 39.68 44.09 47.461-26.453 86.883-159.5 106.33-195.03 25.676-46.941 81.953-117.23 142.12-144.2 83.512-37.086 51.09 39.941 21.266 78.582-68.469 89.215-227.96 168.84-215.26 272.83 61.727-35.012-7.5195-57.836 143.94-179.47 271.8-218.37 46.422-284.76-88.438-70.543-29.047 46.422-60.945 139.27-95.441 191.4-49.535 74.953-42.793 9.5977-15.043-37.086 17.895-30.344 40.719-94.402-21.008-69.504-26.195 10.633-23.34 2.3359-14.781-22.824 19.191-56.797 85.324-131.75 122.41-158.46 54.465-39.422 166.24-98.293 129.41-179.73-41.496-49.793-277.24 122.41-334.56 248.71-27.492 60.945-17.895 87.398-11.152 126.04 8.5586 48.496 9.0781 76.508-47.461 91.031-25.934 6.7422-33.457-13.484-18.672-66.133 46.422-164.68-84.027-81.953 126.82-302.66 40.457-42.273 102.18-170.91-18.672-129.67-58.352 19.969-112.3 77.027-145.49 120.86-47.719 63.281-45.125 172.46-76.508 220.7-26.973 41.496-32.16 7.2617-28.789-22.824z" fill-rule="evenodd"/>
</svg>
